<svg width="344" height="100" viewBox="0 0 344 100" fill="none" xmlns="http://www.w3.org/2000/svg">
<mask id="mask0_4069_5170" style="mask-type:luminance" maskUnits="userSpaceOnUse" x="0" y="1" width="36" height="98">
<path d="M0 1.27051H35.1615V98.6663H0V1.27051Z" fill="white"/>
</mask>
<g mask="url(#mask0_4069_5170)">
<mask id="mask1_4069_5170" style="mask-type:luminance" maskUnits="userSpaceOnUse" x="0" y="1" width="35" height="99">
<path d="M4 1.27051H30.9375C32 1.27051 33.0156 1.69238 33.7656 2.44238C34.5156 3.19238 34.9375 4.21322 34.9375 5.27051V95.182C34.9375 96.2445 34.5156 97.2601 33.7656 98.0101C33.0156 98.7601 32 99.182 30.9375 99.182H4C2.9375 99.182 1.92188 98.7601 1.17188 98.0101C0.421875 97.2601 0 96.2445 0 95.182V5.27051C0 4.21322 0.421875 3.19238 1.17188 2.44238C1.92188 1.69238 2.9375 1.27051 4 1.27051Z" fill="white"/>
</mask>
<g mask="url(#mask1_4069_5170)">
<path d="M0 1.27051H35.349V98.4893H0V1.27051Z" fill="#F3E7DD"/>
</g>
</g>
<mask id="mask2_4069_5170" style="mask-type:luminance" maskUnits="userSpaceOnUse" x="34" y="1" width="32" height="98">
<path d="M34.9375 1.1665H65.3021V98.6665H34.9375V1.1665Z" fill="white"/>
</mask>
<g mask="url(#mask2_4069_5170)">
<mask id="mask3_4069_5170" style="mask-type:luminance" maskUnits="userSpaceOnUse" x="34" y="1" width="31" height="99">
<path d="M38.9375 1.1665H60.8177C63.026 1.1665 64.8177 2.95817 64.8177 5.1665V95.078C64.8177 97.2863 63.026 99.078 60.8177 99.078H38.9375C36.7292 99.078 34.9375 97.2863 34.9375 95.078V5.1665C34.9375 2.95817 36.7292 1.1665 38.9375 1.1665Z" fill="white"/>
</mask>
<g mask="url(#mask3_4069_5170)">
<path d="M34.9375 1.1665H65.3021V98.328H34.9375V1.1665Z" fill="#403A89"/>
</g>
</g>
<mask id="mask4_4069_5170" style="mask-type:luminance" maskUnits="userSpaceOnUse" x="63" y="0" width="41" height="100">
<path d="M63.1602 0H103.16V100H63.1602V0Z" fill="white"/>
</mask>
<g mask="url(#mask4_4069_5170)">
<mask id="mask5_4069_5170" style="mask-type:luminance" maskUnits="userSpaceOnUse" x="63" y="-1" width="41" height="103">
<path d="M63.0781 3.729L88.1615 -0.0991211L103.104 97.7238L78.0208 101.552L63.0781 3.729Z" fill="white"/>
</mask>
<g mask="url(#mask5_4069_5170)">
<mask id="mask6_4069_5170" style="mask-type:luminance" maskUnits="userSpaceOnUse" x="63" y="0" width="39" height="100">
<path d="M67.0351 3.13021L83.806 0.567712C84.8581 0.406254 85.9258 0.66667 86.7799 1.29688C87.6341 1.92709 88.207 2.86459 88.3685 3.91667L101.936 92.7708C102.098 93.8177 101.837 94.8854 101.207 95.7448C100.577 96.599 99.6393 97.1667 98.5872 97.3281L81.8112 99.8906C80.7643 100.052 79.6966 99.7865 78.8424 99.1615C77.9831 98.5313 77.4154 97.5885 77.2539 96.5417L63.681 7.6875C63.5247 6.63542 63.7851 5.56771 64.4154 4.71355C65.0404 3.85938 65.9831 3.28646 67.0351 3.13021Z" fill="white"/>
</mask>
<g mask="url(#mask6_4069_5170)">
<path d="M63.0781 3.729L88.1615 -0.0991211L102.911 96.4686L77.8281 100.297L63.0781 3.729Z" fill="#FABA26"/>
</g>
</g>
</g>
<path d="M132.892 35.731H144.517V41.3351H125.809V6.04346H132.892V35.731Z" fill="#403A89"/>
<path d="M151.346 9.98112C150.096 9.98112 149.055 9.58529 148.221 8.79362C147.398 8.00195 146.992 7.01758 146.992 5.83529C146.992 4.6582 147.398 3.66862 148.221 2.87695C149.055 2.08529 150.096 1.68945 151.346 1.68945C152.596 1.68945 153.628 2.08529 154.451 2.87695C155.284 3.66862 155.701 4.6582 155.701 5.83529C155.701 7.01758 155.284 8.00195 154.451 8.79362C153.628 9.58529 152.596 9.98112 151.346 9.98112ZM154.826 13.3145V41.3353H147.742V13.3145H154.826Z" fill="#403A89"/>
<path d="M167.615 17.4185C168.531 16.0747 169.786 14.981 171.385 14.1476C172.979 13.3039 174.807 12.8768 176.865 12.8768C179.266 12.8768 181.432 13.4705 183.365 14.6476C185.307 15.8143 186.844 17.4914 187.969 19.6685C189.094 21.8507 189.656 24.3716 189.656 27.231C189.656 30.0955 189.094 32.6268 187.969 34.8351C186.844 37.0435 185.307 38.7622 183.365 39.981C181.432 41.1893 179.266 41.7935 176.865 41.7935C174.781 41.7935 172.953 41.382 171.385 40.5643C169.812 39.731 168.557 38.658 167.615 37.3351V41.3351H160.531V3.91846H167.615V17.4185ZM182.427 27.231C182.427 25.5539 182.078 24.0955 181.385 22.856C180.703 21.6216 179.792 20.6841 178.656 20.0435C177.531 19.408 176.312 19.0851 175.01 19.0851C173.719 19.0851 172.51 19.4185 171.385 20.0851C170.26 20.7414 169.349 21.6893 168.656 22.9393C167.958 24.1789 167.615 25.6424 167.615 27.3351C167.615 29.0174 167.958 30.481 168.656 31.731C169.349 32.981 170.26 33.9341 171.385 34.5851C172.51 35.2414 173.719 35.5643 175.01 35.5643C176.312 35.5643 177.531 35.231 178.656 34.5643C179.792 33.8872 180.703 32.9289 181.385 31.6893C182.078 30.4393 182.427 28.9549 182.427 27.231Z" fill="#403A89"/>
<path d="M200.622 17.6685C201.539 16.1841 202.727 15.0226 204.185 14.1893C205.654 13.3455 207.336 12.9185 209.227 12.9185V20.356H207.352C205.128 20.356 203.445 20.8768 202.31 21.9185C201.185 22.9601 200.622 24.783 200.622 27.3768V41.3351H193.539V13.3143H200.622V17.6685Z" fill="#403A89"/>
<path d="M210.883 27.2311C210.883 24.3978 211.445 21.8874 212.57 19.6895C213.706 17.4967 215.242 15.8145 217.174 14.6478C219.117 13.4707 221.284 12.877 223.674 12.877C225.768 12.877 227.596 13.304 229.154 14.1478C230.721 14.9811 231.977 16.0384 232.924 17.3145V13.3145H240.049V41.3353H232.924V37.2311C232.018 38.554 230.763 39.6426 229.154 40.502C227.555 41.3613 225.716 41.7936 223.633 41.7936C221.268 41.7936 219.117 41.1895 217.174 39.9811C215.242 38.7624 213.706 37.0436 212.57 34.8353C211.445 32.627 210.883 30.0957 210.883 27.2311ZM232.924 27.3353C232.924 25.6165 232.581 24.1426 231.904 22.9186C231.237 21.6842 230.326 20.7415 229.174 20.0853C228.034 19.4186 226.805 19.0853 225.487 19.0853C224.18 19.0853 222.971 19.4082 221.862 20.0436C220.747 20.6842 219.846 21.6217 219.154 22.8561C218.456 24.0957 218.112 25.554 218.112 27.2311C218.112 28.9134 218.456 30.3874 219.154 31.6478C219.846 32.9134 220.758 33.8874 221.883 34.5645C223.008 35.2311 224.206 35.5645 225.487 35.5645C226.805 35.5645 228.034 35.2415 229.174 34.5853C230.326 33.9342 231.237 32.9915 231.904 31.752C232.581 30.5176 232.924 29.0436 232.924 27.3353Z" fill="#403A89"/>
<path d="M252.786 17.6685C253.703 16.1841 254.891 15.0226 256.349 14.1893C257.818 13.3455 259.5 12.9185 261.391 12.9185V20.356H259.516C257.292 20.356 255.609 20.8768 254.474 21.9185C253.349 22.9601 252.786 24.783 252.786 27.3768V41.3351H245.703V13.3143H252.786V17.6685Z" fill="#403A89"/>
<path d="M291.671 13.3145L274.316 54.5853H266.796L272.858 40.627L261.629 13.3145H269.566L276.796 32.8978L284.129 13.3145H291.671Z" fill="#403A89"/>
<path d="M137.993 93.474C135.535 93.474 133.316 93.0573 131.348 92.224C129.374 91.3802 127.811 90.1615 126.66 88.5781C125.52 86.9948 124.936 85.1198 124.91 82.9531H132.493C132.587 84.4115 133.103 85.5677 134.035 86.4115C134.962 87.2448 136.233 87.6615 137.848 87.6615C139.499 87.6615 140.796 87.2656 141.743 86.474C142.686 85.6823 143.16 84.651 143.16 83.3698C143.16 82.3177 142.837 81.4531 142.202 80.7865C141.561 80.1094 140.754 79.5729 139.785 79.1823C138.827 78.7969 137.504 78.3646 135.827 77.8906C133.535 77.224 131.671 76.5677 130.243 75.9115C128.811 75.2448 127.582 74.2552 126.556 72.9323C125.525 71.599 125.014 69.8177 125.014 67.5781C125.014 65.4948 125.535 63.6823 126.577 62.1406C127.618 60.5885 129.082 59.401 130.973 58.5781C132.858 57.7448 135.02 57.3281 137.452 57.3281C141.087 57.3281 144.04 58.2188 146.306 59.9948C148.582 61.7604 149.837 64.224 150.077 67.3906H142.306C142.233 66.1719 141.712 65.1615 140.743 64.3698C139.785 63.5781 138.514 63.1823 136.931 63.1823C135.556 63.1823 134.452 63.5365 133.618 64.2448C132.796 64.9531 132.389 65.9844 132.389 67.3281C132.389 68.276 132.702 69.0573 133.327 69.6823C133.952 70.3073 134.723 70.8177 135.639 71.2031C136.566 71.5938 137.879 72.0365 139.577 72.5365C141.868 73.2188 143.733 73.901 145.181 74.5781C146.624 75.2448 147.868 76.2552 148.91 77.599C149.962 78.9479 150.493 80.7188 150.493 82.9115C150.493 84.8021 149.999 86.5573 149.014 88.1823C148.04 89.7969 146.608 91.0781 144.723 92.0365C142.832 92.9948 140.587 93.474 137.993 93.474Z" fill="#403A89"/>
<path d="M163.576 70.9326V84.4743C163.576 85.4222 163.805 86.1097 164.263 86.5368C164.721 86.9535 165.482 87.1618 166.555 87.1618H169.846V93.1201H165.388C159.43 93.1201 156.451 90.2243 156.451 84.4326V70.9326H153.117V65.0993H156.451V58.1826H163.576V65.0993H169.846V70.9326H163.576Z" fill="#403A89"/>
<path d="M199.717 78.5158C199.717 79.5158 199.655 80.4272 199.53 81.245H179.051C179.217 83.2606 179.915 84.8439 181.155 85.995C182.405 87.1356 183.947 87.7033 185.78 87.7033C188.405 87.7033 190.27 86.5783 191.384 84.3283H199.009C198.202 87.0262 196.655 89.2397 194.363 90.9741C192.072 92.7137 189.259 93.5783 185.926 93.5783C183.228 93.5783 180.806 92.9845 178.655 91.7866C176.514 90.5939 174.848 88.9012 173.655 86.7033C172.457 84.5106 171.863 81.9845 171.863 79.12C171.863 76.2189 172.452 73.672 173.634 71.4741C174.811 69.2814 176.467 67.5991 178.592 66.4325C180.717 65.2554 183.16 64.6616 185.926 64.6616C188.592 64.6616 190.973 65.2397 193.072 66.3908C195.181 67.5314 196.811 69.1564 197.967 71.2658C199.134 73.3647 199.717 75.7814 199.717 78.5158ZM192.384 76.495C192.353 74.6616 191.702 73.2033 190.426 72.12C189.145 71.0262 187.577 70.4741 185.717 70.4741C183.967 70.4741 182.493 71.0106 181.301 72.0783C180.103 73.1356 179.368 74.6095 179.092 76.495H192.384Z" fill="#403A89"/>
<path d="M238.389 64.7031C241.832 64.7031 244.603 65.7604 246.702 67.8698C248.811 69.9688 249.868 72.9063 249.868 76.6823V93.1198H242.785V77.6406C242.785 75.4635 242.228 73.7865 241.118 72.6198C240.004 71.4531 238.493 70.8698 236.577 70.8698C234.66 70.8698 233.129 71.4531 231.993 72.6198C230.868 73.7865 230.306 75.4635 230.306 77.6406V93.1198H223.223V77.6406C223.223 75.4635 222.665 73.7865 221.556 72.6198C220.441 71.4531 218.931 70.8698 217.014 70.8698C215.056 70.8698 213.504 71.4531 212.368 72.6198C211.243 73.7865 210.681 75.4635 210.681 77.6406V93.1198H203.598V65.099H210.681V68.4948C211.598 67.3177 212.77 66.3906 214.202 65.724C215.629 65.0469 217.207 64.7031 218.931 64.7031C221.124 64.7031 223.077 65.1719 224.785 66.099C226.504 67.0313 227.837 68.349 228.785 70.0573C229.702 68.4479 231.025 67.1563 232.764 66.1823C234.499 65.1979 236.374 64.7031 238.389 64.7031Z" fill="#403A89"/>
<path d="M253.492 79.0158C253.492 76.1825 254.055 73.672 255.18 71.4741C256.315 69.2814 257.852 67.5991 259.784 66.4325C261.727 65.2554 263.893 64.6616 266.284 64.6616C268.378 64.6616 270.206 65.0887 271.763 65.9325C273.331 66.7658 274.586 67.8231 275.534 69.0991V65.0991H282.659V93.12H275.534V89.0158C274.628 90.3387 273.372 91.4272 271.763 92.2866C270.164 93.146 268.326 93.5783 266.242 93.5783C263.878 93.5783 261.727 92.9741 259.784 91.7658C257.852 90.547 256.315 88.8283 255.18 86.62C254.055 84.4116 253.492 81.8804 253.492 79.0158ZM275.534 79.12C275.534 77.4012 275.19 75.9272 274.513 74.7033C273.846 73.4689 272.935 72.5262 271.784 71.87C270.643 71.2033 269.414 70.87 268.096 70.87C266.789 70.87 265.581 71.1929 264.471 71.8283C263.357 72.4689 262.456 73.4064 261.763 74.6408C261.065 75.8804 260.721 77.3387 260.721 79.0158C260.721 80.6981 261.065 82.172 261.763 83.4325C262.456 84.6981 263.367 85.672 264.492 86.3491C265.617 87.0158 266.815 87.3491 268.096 87.3491C269.414 87.3491 270.643 87.0262 271.784 86.37C272.935 85.7189 273.846 84.7762 274.513 83.5366C275.19 82.3022 275.534 80.8283 275.534 79.12Z" fill="#403A89"/>
<path d="M296.564 70.9326V84.4743C296.564 85.4222 296.793 86.1097 297.251 86.5368C297.71 86.9535 298.47 87.1618 299.543 87.1618H302.835V93.1201H298.376C292.418 93.1201 289.439 90.2243 289.439 84.4326V70.9326H286.105V65.0993H289.439V58.1826H296.564V65.0993H302.835V70.9326H296.564Z" fill="#403A89"/>
<path d="M332.702 78.5158C332.702 79.5158 332.639 80.4272 332.514 81.245H312.035C312.202 83.2606 312.9 84.8439 314.139 85.995C315.389 87.1356 316.931 87.7033 318.764 87.7033C321.389 87.7033 323.254 86.5783 324.368 84.3283H331.993C331.186 87.0262 329.639 89.2397 327.348 90.9741C325.056 92.7137 322.243 93.5783 318.91 93.5783C316.212 93.5783 313.79 92.9845 311.639 91.7866C309.499 90.5939 307.832 88.9012 306.639 86.7033C305.441 84.5106 304.848 81.9845 304.848 79.12C304.848 76.2189 305.436 73.672 306.618 71.4741C307.796 69.2814 309.452 67.5991 311.577 66.4325C313.702 65.2554 316.145 64.6616 318.91 64.6616C321.577 64.6616 323.957 65.2397 326.056 66.3908C328.165 67.5314 329.796 69.1564 330.952 71.2658C332.118 73.3647 332.702 75.7814 332.702 78.5158ZM325.368 76.495C325.337 74.6616 324.686 73.2033 323.41 72.12C322.129 71.0262 320.561 70.4741 318.702 70.4741C316.952 70.4741 315.478 71.0106 314.285 72.0783C313.087 73.1356 312.353 74.6095 312.077 76.495H325.368Z" fill="#403A89"/>
<path d="M343.665 55.7031V93.1198H336.582V55.7031H343.665Z" fill="#403A89"/>
</svg>
